<?xml version="1.0" standalone="no"?><!DOCTYPE svg PUBLIC "-//W3C//DTD SVG 1.1//EN" "http://www.w3.org/Graphics/SVG/1.1/DTD/svg11.dtd"><svg t="1566805166100" class="icon" viewBox="0 0 1024 1024" version="1.1" xmlns="http://www.w3.org/2000/svg" p-id="1952" xmlns:xlink="http://www.w3.org/1999/xlink" width="128" height="128"><defs><style type="text/css"></style></defs><path d="M512 0C229.22752 0 0 229.22752 0 512s229.22752 512 512 512 512-229.22752 512-512S794.77248 0 512 0z m36.352 859.136c-11.68896 10.32704-26.32192 15.95392-41.93792 15.95392-17.536 0-31.19104-5.632-41.93792-15.95392-11.68896-11.21792-17.536-24.36608-17.536-40.32s5.84704-29.09696 17.536-39.424c10.752-11.21792 24.40704-15.90784 41.93792-15.90784 16.59904 0 30.24896 4.68992 41.93792 15.90784 10.75712 10.33216 16.59904 23.47008 16.59904 39.424 0 16.896-5.84704 30.03392-16.59904 40.32z m140.45696-375.25504c-9.76896 11.264-37.07904 35.66592-80 72.23808-20.48 16.89088-35.11296 33.792-44.84096 50.68288-12.67712 20.60288-18.51904 44.07296-18.51904 69.42208v21.58592H466.432v-21.58592c0-30.976 5.84704-58.15296 18.51904-81.62304 12.71296-28.16 45.86496-63.78496 98.51904-108.84096 15.61088-14.976 26.32192-26.24 33.152-33.75104 18.51392-23.46496 28.288-47.872 28.288-74.112 0-37.54496-10.71104-66.60096-32.17408-87.25504-23.424-22.528-55.59296-32.85504-96.55296-32.85504-47.78496 0-83.88096 15.01696-108.24704 45.99296-20.48 26.24-31.232 61.90592-31.232 107.85792H298.71104c0-65.664 19.49696-118.18496 57.51296-157.60896 39.97696-41.26208 94.592-61.91104 163.84-61.91104 62.41792 0 113.152 15.95904 150.18496 49.75104 36.10112 31.872 54.61504 75.99104 54.61504 132.26496 0 42.20928-12.672 78.81728-36.05504 109.7472z" p-id="1953" fill="#f4ea2a"></path></svg>